<?xml version="1.0" encoding="iso-8859-1"?>
<!-- Generator: Adobe Illustrator 19.0.0, SVG Export Plug-In . SVG Version: 6.00 Build 0)  -->
<svg version="1.1" id="Layer_1" xmlns="http://www.w3.org/2000/svg" xmlns:xlink="http://www.w3.org/1999/xlink" x="0px" y="0px"
	 viewBox="0 0 512 512" style="enable-background:new 0 0 512 512;" xml:space="preserve">
<g>
	<g>
		<path d="M345.72,0c-91.052,0-165.128,74.077-165.128,165.128c0,42.226,15.939,80.794,42.107,110.023L189.93,307.92l-15.067-15.067
			c-3.984-3.982-10.44-3.982-14.425,0L13.53,439.762c-16.503,16.504-16.503,43.357,0.001,59.86
			C21.782,507.874,32.621,512,43.461,512c10.839,0,21.678-4.126,29.931-12.377L220.3,352.714c3.983-3.983,3.983-10.441,0-14.425
			l-15.944-15.944l32.854-32.854c29.04,25.372,67.009,40.765,108.51,40.765c91.053,0,165.128-74.077,165.128-165.128
			S436.773,0,345.72,0z M58.966,485.198c-8.551,8.549-22.463,8.548-31.012,0.001c-8.55-8.551-8.55-22.463,0-31.012l139.697-139.697
			l31.011,31.011L58.966,485.198z M345.72,309.857c-79.803,0-144.728-64.925-144.728-144.728S265.917,20.399,345.72,20.399
			c79.804,0,144.728,64.925,144.728,144.728S425.524,309.857,345.72,309.857z"/>
	</g>
</g>
<g>
	<g>
		<path d="M405.678,137.647c-5.097-2.402-11.173-0.217-13.575,4.878l-1.526,3.238c-2.401,5.096-0.217,11.173,4.878,13.575
			c1.406,0.662,2.884,0.975,4.341,0.975c3.826,0,7.495-2.163,9.234-5.854l1.526-3.238
			C412.959,146.126,410.774,140.049,405.678,137.647z"/>
	</g>
</g>
<g>
	<g>
		<path d="M391.263,168.246c-5.096-2.401-11.173-0.216-13.574,4.881l-17.17,36.452c-0.907-0.084-1.824-0.132-2.752-0.132
			c-1.81,0-3.58,0.17-5.302,0.48l-31.548-54.304c4.15-5.135,6.642-11.663,6.642-18.765c0-16.494-13.418-29.911-29.911-29.911
			s-29.911,13.418-29.911,29.911c0,6.265,1.939,12.081,5.244,16.893L261.81,170c-2.405-0.626-4.927-0.96-7.526-0.96
			c-16.494,0-29.911,13.418-29.911,29.911c0,16.493,13.418,29.91,29.911,29.91c16.493,0,29.91-13.418,29.91-29.91
			c0-6.477-2.076-12.474-5.588-17.376l10.949-15.926c2.576,0.725,5.288,1.122,8.093,1.122c1.992,0,3.937-0.2,5.821-0.573
			l31.365,53.988c-4.351,5.196-6.977,11.883-6.977,19.173c0,16.494,13.418,29.911,29.91,29.911
			c16.494,0,29.911-13.418,29.911-29.911c0-8.215-3.33-15.665-8.709-21.075l17.175-36.463
			C398.546,176.723,396.36,170.647,391.263,168.246z M254.283,208.462c-5.246,0-9.512-4.268-9.512-9.511
			c0-5.246,4.268-9.512,9.512-9.512c5.245,0,9.511,4.268,9.511,9.512C263.794,204.194,259.527,208.462,254.283,208.462z
			 M297.648,146.371c-5.245,0-9.512-4.268-9.512-9.512c0-5.246,4.268-9.512,9.512-9.512s9.512,4.268,9.512,9.512
			S302.893,146.371,297.648,146.371z M357.769,248.87c-5.245,0-9.511-4.268-9.511-9.512c0-5.245,4.267-9.511,9.511-9.511
			c5.246,0,9.512,4.268,9.512,9.511C367.281,244.603,363.013,248.87,357.769,248.87z"/>
	</g>
</g>
<g>
	<g>
		<path d="M422.931,71.753c-16.493,0-29.91,13.418-29.91,29.91c0,16.494,13.418,29.911,29.91,29.911
			c16.494,0,29.911-13.418,29.911-29.911C452.842,85.171,439.425,71.753,422.931,71.753z M422.931,111.176
			c-5.245,0-9.511-4.268-9.511-9.512c0-5.245,4.267-9.511,9.511-9.511c5.246,0,9.512,4.268,9.512,9.511
			C432.443,106.908,428.176,111.176,422.931,111.176z"/>
	</g>
</g>
<g>
</g>
<g>
</g>
<g>
</g>
<g>
</g>
<g>
</g>
<g>
</g>
<g>
</g>
<g>
</g>
<g>
</g>
<g>
</g>
<g>
</g>
<g>
</g>
<g>
</g>
<g>
</g>
<g>
</g>
</svg>
