<?xml version="1.0" encoding="iso-8859-1"?>
<!-- Generator: Adobe Illustrator 19.0.0, SVG Export Plug-In . SVG Version: 6.00 Build 0)  -->
<svg version="1.1" id="Layer_1" xmlns="http://www.w3.org/2000/svg" xmlns:xlink="http://www.w3.org/1999/xlink" x="0px" y="0px"
	 viewBox="0 0 511.999 511.999" style="enable-background:new 0 0 511.999 511.999;" xml:space="preserve">
<g>
	<g>
		<path d="M150.49,297.564c-6.718-7.17-16.208-11.283-26.032-11.283h-23.451c-9.826,0-19.315,4.112-26.032,11.283
			c-6.719,7.171-10.206,16.907-9.567,26.714l1.042,15.982v0.001l2.434,37.319c0.981,15.05,9.457,28.374,22.672,35.643
			c6.63,3.646,13.904,5.47,21.177,5.47c7.273,0,14.547-1.824,21.177-5.47c13.215-7.269,21.692-20.593,22.672-35.643l2.781-42.647
			l0.696-10.656C160.697,314.471,157.21,304.735,150.49,297.564z M85.762,322.951c-0.277-4.261,1.177-8.325,4.097-11.439
			c2.918-3.116,6.877-4.831,11.148-4.831h16.102l-2.863,7.634c-1.461,2.078-8.605,10.73-28.132,14.005L85.762,322.951z
			 M136.226,376.252c-0.525,8.063-5.067,15.203-12.148,19.097c-7.104,3.907-15.587,3.907-22.691,0
			c-7.08-3.894-11.623-11.034-12.148-19.097l-1.794-27.511c16.634-2.444,27.599-8.14,34.534-13.524
			c1.233,0.856,2.591,1.667,4.069,2.43c2.885,1.491,6.98,2.964,12.404,4.458L136.226,376.252z M135.413,319.525
			c-0.433-0.223-0.789-0.427-1.106-0.617l2.317-6.179c1.88,2.462,2.951,5.384,3.094,8.474
			C137.273,320.403,136.004,319.832,135.413,319.525z"/>
	</g>
</g>
<g>
	<g>
		<path d="M219.572,499.982l-3.882-21.438c-4.828-26.653-25.945-47.925-52.544-52.934c-4.015-0.757-8.123-1.14-12.206-1.14h-11.696
			c-2.705,0-5.298,1.075-7.212,2.987l-19.299,19.299l-19.299-19.299c-1.913-1.912-4.507-2.987-7.212-2.987H74.525
			c-4.084,0-8.191,0.383-12.206,1.14c-26.6,5.009-47.715,26.281-52.543,52.933L5.89,499.982c-0.539,2.975,0.27,6.035,2.207,8.355
			c1.938,2.32,4.806,3.661,7.829,3.661h193.609c3.023,0,5.89-1.341,7.829-3.661C219.301,506.017,220.11,502.956,219.572,499.982z
			 M28.141,491.602l1.707-9.422c3.332-18.39,17.898-33.068,36.246-36.523c2.774-0.522,5.611-0.787,8.432-0.787h7.471l23.523,23.523
			c3.984,3.982,10.44,3.982,14.425,0l23.523-23.523h7.471c2.821,0,5.657,0.265,8.432,0.787
			c18.348,3.455,32.915,18.133,36.247,36.524l1.706,9.421H28.141z"/>
	</g>
</g>
<g>
	<g>
		<path d="M437.026,297.563c-6.718-7.17-16.208-11.283-26.032-11.283h-23.45c-9.826,0.001-19.315,4.114-26.033,11.284
			c-6.719,7.171-10.206,16.907-9.567,26.714l1.042,15.981v0.001l2.434,37.319c0.981,15.05,9.457,28.374,22.672,35.643
			c6.63,3.646,13.904,5.47,21.177,5.47s14.547-1.824,21.177-5.47c13.215-7.269,21.692-20.593,22.672-35.643l2.781-42.647
			l0.696-10.656C447.232,314.47,443.745,304.734,437.026,297.563z M372.298,322.951c-0.277-4.261,1.177-8.325,4.097-11.439
			c2.918-3.116,6.877-4.831,11.148-4.831h16.101l-2.863,7.634c-1.461,2.078-8.605,10.73-28.132,14.005L372.298,322.951z
			 M422.762,376.252c-0.526,8.063-5.068,15.203-12.148,19.097c-7.104,3.907-15.587,3.907-22.691,0
			c-7.08-3.894-11.623-11.034-12.148-19.097l-1.794-27.511c16.634-2.444,27.6-8.14,34.535-13.524
			c1.233,0.856,2.591,1.667,4.069,2.43c2.885,1.491,6.98,2.964,12.404,4.458L422.762,376.252z M421.949,319.525
			c-0.433-0.223-0.789-0.427-1.105-0.617l2.317-6.179c1.878,2.462,2.95,5.384,3.093,8.474
			C423.81,320.403,422.541,319.832,421.949,319.525z"/>
	</g>
</g>
<g>
	<g>
		<path d="M506.109,499.982l-3.885-21.439c-4.827-26.653-25.944-47.925-52.543-52.934c-4.015-0.757-8.123-1.14-12.206-1.14h-11.696
			c-2.705,0-5.298,1.075-7.212,2.987l-19.299,19.299l-19.299-19.299c-1.913-1.912-4.507-2.987-7.212-2.987H361.06
			c-4.084,0-8.191,0.384-12.206,1.14c-26.599,5.009-47.715,26.281-52.543,52.933l-3.885,21.439c-0.539,2.975,0.27,6.035,2.207,8.355
			c1.938,2.32,4.806,3.662,7.829,3.662h193.609c3.023,0,5.89-1.341,7.829-3.662C505.839,506.018,506.647,502.957,506.109,499.982z
			 M314.676,491.601l1.707-9.421c3.332-18.39,17.898-33.068,36.246-36.523c2.774-0.522,5.611-0.787,8.432-0.787h7.471l23.523,23.523
			c3.984,3.982,10.44,3.982,14.425,0l23.523-23.523h7.471c2.821,0,5.657,0.265,8.432,0.787
			c18.348,3.455,32.914,18.133,36.246,36.523l1.707,9.421H314.676z"/>
	</g>
</g>
<g>
	<g>
		<path d="M293.758,11.283C287.04,4.112,277.551,0,267.725,0h-23.45c-9.826,0-19.315,4.112-26.032,11.283
			c-6.719,7.171-10.206,16.907-9.567,26.714l1.042,15.981l2.434,37.321c0.981,15.05,9.457,28.374,22.672,35.643
			c6.63,3.646,13.904,5.469,21.177,5.469c7.273,0,14.546-1.823,21.177-5.469c13.215-7.269,21.692-20.593,22.672-35.643l2.781-42.647
			l0.696-10.656C303.965,28.191,300.478,18.454,293.758,11.283z M229.03,36.669c-0.277-4.261,1.177-8.324,4.096-11.439
			c2.919-3.116,6.878-4.831,11.149-4.831h16.101l-2.863,7.634c-1.461,2.078-8.605,10.73-28.132,14.005L229.03,36.669z
			 M279.494,89.971c-0.525,8.063-5.068,15.203-12.148,19.097c-7.105,3.907-15.586,3.907-22.691,0
			c-7.08-3.894-11.623-11.034-12.148-19.097l-1.794-27.511c16.634-2.444,27.599-8.14,34.535-13.524
			c1.234,0.856,2.591,1.667,4.07,2.43c2.886,1.491,6.981,2.964,12.403,4.458L279.494,89.971z M278.681,33.243
			c-0.433-0.223-0.789-0.427-1.106-0.617l2.317-6.18c1.879,2.463,2.951,5.385,3.094,8.475
			C280.541,34.121,279.273,33.549,278.681,33.243z"/>
	</g>
</g>
<g>
	<g>
		<path d="M362.841,213.703l-3.884-21.439c-4.828-26.653-25.945-47.925-52.544-52.933c-4.015-0.757-8.123-1.14-12.206-1.14H282.51
			c-2.705,0-5.298,1.075-7.212,2.987L256,160.475l-19.299-19.299c-1.913-1.912-4.507-2.987-7.212-2.987h-11.696
			c-4.084,0-8.191,0.383-12.206,1.14c-26.6,5.009-47.715,26.281-52.543,52.933l-3.885,21.439c-0.539,2.975,0.27,6.035,2.207,8.355
			c1.94,2.322,4.807,3.664,7.83,3.664h193.609c3.023,0,5.89-1.341,7.829-3.661C362.57,219.738,363.379,216.677,362.841,213.703z
			 M171.409,205.322l1.706-9.423c3.332-18.39,17.898-33.068,36.246-36.523c2.774-0.522,5.611-0.787,8.432-0.787h7.472l23.522,23.523
			c3.984,3.983,10.44,3.983,14.425,0l23.522-23.523h7.472c2.821,0,5.658,0.265,8.432,0.787
			c18.348,3.456,32.915,18.133,36.247,36.524l1.706,9.422H171.409z"/>
	</g>
</g>
<g>
	<g>
		<path d="M252.926,244.255c-5.632,0-10.199,4.566-10.199,10.199v3.074c0,5.633,4.567,10.199,10.199,10.199
			c5.632,0,10.199-4.566,10.199-10.199v-3.074C263.125,248.821,258.558,244.255,252.926,244.255z"/>
	</g>
</g>
<g>
	<g>
		<path d="M324.573,360.887l-61.448-35.478V287.24c0-5.633-4.567-10.199-10.199-10.199c-5.632,0-10.199,4.566-10.199,10.199v38.168
			h0l-61.448,35.478c-4.878,2.816-6.55,9.054-3.733,13.932c1.89,3.272,5.317,5.101,8.843,5.101c1.73,0,3.484-0.441,5.089-1.368
			l61.448-35.478l61.448,35.478c1.606,0.927,3.36,1.368,5.089,1.368c3.525,0,6.953-1.829,8.843-5.101
			C331.123,369.94,329.452,363.703,324.573,360.887z"/>
	</g>
</g>
<g>
</g>
<g>
</g>
<g>
</g>
<g>
</g>
<g>
</g>
<g>
</g>
<g>
</g>
<g>
</g>
<g>
</g>
<g>
</g>
<g>
</g>
<g>
</g>
<g>
</g>
<g>
</g>
<g>
</g>
</svg>
