<?xml version="1.0" encoding="iso-8859-1"?>
<!-- Generator: Adobe Illustrator 19.0.0, SVG Export Plug-In . SVG Version: 6.00 Build 0)  -->
<svg version="1.1" id="Layer_1" xmlns="http://www.w3.org/2000/svg" xmlns:xlink="http://www.w3.org/1999/xlink" x="0px" y="0px"
	 viewBox="0 0 512 512" style="enable-background:new 0 0 512 512;" xml:space="preserve">
<g>
	<g>
		<path d="M357.006,101.006H60.41c-5.633,0-10.199,4.567-10.199,10.199c0,5.632,4.567,10.199,10.199,10.199h296.596
			c5.632,0,10.199-4.567,10.199-10.199C367.205,105.573,362.638,101.006,357.006,101.006z"/>
	</g>
</g>
<g>
	<g>
		<path d="M419.793,101.006h-12.845c-5.632,0-10.199,4.567-10.199,10.199c0,5.632,4.567,10.199,10.199,10.199h12.845
			c5.632,0,10.199-4.567,10.199-10.199C429.992,105.573,425.425,101.006,419.793,101.006z"/>
	</g>
</g>
<g>
	<g>
		<path d="M501.801,228.14h-14.323V100.112c0-20.755-16.886-37.64-37.639-37.64H49.317C22.123,62.472,0,84.595,0,111.788
			c0,0.131,0.009,0.258,0.01,0.389c-0.002,0.066-0.01,0.13-0.01,0.196v277.329c0,32.988,26.838,59.826,59.826,59.826h417.452
			c5.632,0,10.199-4.567,10.199-10.199v-79.568h14.323c5.632,0,10.199-4.567,10.199-10.199V238.339
			C512,232.707,507.433,228.14,501.801,228.14z M49.317,82.87h400.522c9.507,0,17.241,7.735,17.241,17.242v40.597H49.317
			c-15.945,0-28.919-12.973-28.919-28.92C20.398,95.843,33.372,82.87,49.317,82.87z M467.08,429.129H59.826
			c-21.741,0-39.428-17.687-39.428-39.428V151.702c8.131,5.907,18.122,9.405,28.919,9.405H467.08v67.033h-57.965
			c-36.288,0-65.81,29.523-65.81,65.81s29.523,65.81,65.81,65.81h57.965V429.129z M491.602,339.362h-82.487
			c-25.041,0-45.412-20.372-45.412-45.412c0-25.04,20.372-45.412,45.412-45.412h82.487V339.362z"/>
	</g>
</g>
<g>
	<g>
		<path d="M411.672,264.156c-16.429,0-29.793,13.366-29.793,29.794c0,16.428,13.365,29.794,29.793,29.794
			c16.428,0,29.794-13.365,29.794-29.794C441.465,277.521,428.1,264.156,411.672,264.156z M411.672,303.346
			c-5.18,0-9.395-4.215-9.395-9.396s4.214-9.396,9.395-9.396c5.18,0,9.396,4.215,9.396,9.396S416.852,303.346,411.672,303.346z"/>
	</g>
</g>
<g>
</g>
<g>
</g>
<g>
</g>
<g>
</g>
<g>
</g>
<g>
</g>
<g>
</g>
<g>
</g>
<g>
</g>
<g>
</g>
<g>
</g>
<g>
</g>
<g>
</g>
<g>
</g>
<g>
</g>
</svg>
