<?xml version="1.0" encoding="UTF-8"?>
<svg width="1500px" height="801px" viewBox="0 0 1500 801" version="1.1" xmlns="http://www.w3.org/2000/svg" xmlns:xlink="http://www.w3.org/1999/xlink">
    <!-- Generator: Sketch 46.2 (44496) - http://www.bohemiancoding.com/sketch -->
    <title>icons-background</title>
    <desc>Created with Sketch.</desc>
    <defs></defs>
    <g id="Page-1" stroke="none" stroke-width="1" fill="none" fill-rule="evenodd" opacity="0.08">
        <g id="icons-background" transform="translate(-51.000000, -6.000000)">
            <g id="Group" style="mix-blend-mode: luminosity;">
                <path d="M1021.5,203.41 L1005.38,187.29 C1004.70137,186.618626 1003.76053,186.281825 1002.81,186.37 L1002.65,186.37 C1001.95005,186.46166 1001.29983,186.781497 1000.8,187.28 L973.73,214.35 C973.236551,214.861912 972.927027,215.523168 972.85,216.23 C972.842997,216.313186 972.842997,216.396814 972.85,216.48 C972.786986,217.405194 973.125911,218.312639 973.78,218.97 L989.85,235.07 C991.117329,236.328446 993.162671,236.328446 994.43,235.07 L1021.5,208 C1022.11005,207.392062 1022.45295,206.566251 1022.45295,205.705 C1022.45295,204.843749 1022.11005,204.017938 1021.5,203.41 L1021.5,203.41 Z M996.43,209.93 L978.28,214.04 L1000.49,191.83 L996.43,209.93 Z" id="Shape" fill="#000000" fill-rule="nonzero"></path>
                <path d="M1019.38,205.88 L992.31,232.95 C992.264968,232.995189 992.203796,233.020589 992.14,233.020589 C992.076204,233.020589 992.015032,232.995189 991.97,232.95 L976.54,217.52 L998.02,212.66 C998.58266,212.532034 999.022034,212.09266 999.15,211.53 L1003.95,190.12 L1019.38,205.55 C1019.42519,205.595032 1019.45059,205.656204 1019.45059,205.72 C1019.45059,205.783796 1019.42519,205.844968 1019.38,205.89 L1019.38,205.88 Z" id="Shape" fill="#FFFFFF" fill-rule="nonzero"></path>
                <path d="M957.85,239.54 C957.243717,239.539467 956.697368,239.17401 956.465426,238.613847 C956.233484,238.053684 956.361559,237.408974 956.79,236.98 L970.42,223.36 C971.01102,222.809282 971.932019,222.825532 972.503244,223.396756 C973.074468,223.967981 973.090718,224.88898 972.54,225.48 L958.91,239.11 C958.627336,239.387721 958.246261,239.542308 957.85,239.54 Z" id="Shape" fill="#FFFFFF" fill-rule="nonzero"></path>
                <path d="M968.08,240.78 C967.473717,240.779467 966.927368,240.41401 966.695426,239.853847 C966.463484,239.293684 966.591559,238.648974 967.02,238.22 L976.16,229.08 C976.75102,228.529282 977.672019,228.545532 978.243244,229.116756 C978.814468,229.687981 978.830718,230.60898 978.28,231.2 L969.14,240.34 C968.858965,240.621385 968.477691,240.77965 968.08,240.78 Z" id="Shape" fill="#FFFFFF" fill-rule="nonzero"></path>
                <path d="M978.37,241.93 C977.763717,241.929467 977.217368,241.56401 976.985426,241.003847 C976.753484,240.443684 976.881559,239.798974 977.31,239.37 L981.88,234.8 C982.47102,234.249282 983.392019,234.265532 983.963244,234.836756 C984.534468,235.407981 984.550718,236.32898 984,236.92 L979.43,241.49 C979.149593,241.772322 978.767911,241.930756 978.37,241.93 L978.37,241.93 Z" id="Shape" fill="#FFFFFF" fill-rule="nonzero"></path>
                <path d="M943.85,641.35 C943.146933,641.347435 942.539984,640.856888 942.39,640.17 L936.09,611.48 C936.003634,611.091444 936.075245,610.684493 936.289063,610.348761 C936.502882,610.013029 936.841373,609.776046 937.23,609.69 L948.23,607.27 C948.758753,607.159248 949.306427,607.338995 949.666718,607.741532 C950.027009,608.14407 950.14518,608.708242 949.976718,609.221532 C949.808255,609.734822 949.378753,610.119248 948.85,610.23 L939.29,612.33 L944.95,638.09 L992.73,627.59 L987.07,601.83 L977.52,603.96 C976.710903,604.139493 975.909493,603.629097 975.73,602.82 C975.550507,602.010903 976.060903,601.209493 976.87,601.03 L987.87,598.58 C988.258556,598.493634 988.665507,598.565245 989.001239,598.779063 C989.336971,598.992882 989.573954,599.331373 989.66,599.72 L995.96,628.42 C996.046366,628.808556 995.974755,629.215507 995.760937,629.551239 C995.547118,629.886971 995.208627,630.123954 994.82,630.21 L944.11,641.35 C944.023503,641.357679 943.936497,641.357679 943.85,641.35 L943.85,641.35 Z" id="Shape" fill="#000000" fill-rule="nonzero"></path>
                <g transform="translate(0.000000, 5.000000)"></g>
                <g id="Group-Copy" transform="translate(29.330000, 0.000000)"></g>
                <path d="M968.63,596.6 C967.926933,596.597435 967.319984,596.106888 967.17,595.42 L965.72,588.8 C965.566009,588.000717 966.077584,587.224481 966.872815,587.050779 C967.668047,586.877077 968.456692,587.369306 968.65,588.16 L969.78,593.31 L974.95,592.18 C975.479157,592.050632 976.036856,592.218312 976.406932,592.618045 C976.777008,593.017778 976.901284,593.586725 976.731588,594.10436 C976.561893,594.621995 976.124904,595.006945 975.59,595.11 L968.96,596.57 C968.851445,596.592156 968.74077,596.602218 968.63,596.6 L968.63,596.6 Z" id="Shape" fill="#000000" fill-rule="nonzero"></path>
                <path d="M989.31,598.98 C988.741065,598.378191 987.792061,598.351333 987.19,598.92 L979.54,606.13 L976.68,593.13 C976.54836,592.410142 976.124902,591.776764 975.51,591.38 L969.12,587.33 C968.497686,586.948573 967.748185,586.833265 967.04,587.01 L946.04,591.62 C945.344401,591.765612 944.729811,592.169383 944.32,592.75 C943.896052,593.36586 943.750868,594.131707 943.92,594.86 L947.92,613.13 L937.92,609.77 C937.135756,609.493858 936.276142,609.905756 936,610.69 C935.723858,611.474244 936.135756,612.333858 936.92,612.61 L965.69,622.23 C966.215627,622.407751 966.796444,622.280817 967.2,621.9 L989.26,601.1 C989.858947,600.52826 989.881327,599.57934 989.31,598.98 Z" id="Shape" fill="#000000" fill-rule="nonzero"></path>
                <polygon id="Shape" fill="#FFFFFF" fill-rule="nonzero" points="965.79 619.11 951.27 614.21 946.93 594.47 967.65 589.92 973.76 593.8 977 608.54"></polygon>
                <path d="M959.07,610.03 C957.949904,610.029784 956.850857,609.725645 955.89,609.15 C954.52655,608.351063 953.555969,607.021947 953.21,605.48 L951.74,598.81 C951.586009,598.010717 952.097584,597.234481 952.892815,597.060779 C953.688047,596.887077 954.476692,597.379306 954.67,598.17 L956.14,604.84 C956.311668,605.573069 956.778461,606.202697 957.43,606.58 C958.107498,606.989729 958.91576,607.125632 959.69,606.96 C961.258523,606.628376 962.289121,605.122117 962.03,603.54 L958.43,587.15 C958.322715,586.698078 958.033116,586.31074 957.63,586.08 C957.20289,585.826447 956.696714,585.740896 956.21,585.84 C955.232962,586.041442 954.586082,586.974358 954.74,587.96 L955.42,591.06 C955.573991,591.859283 955.062416,592.635519 954.267185,592.809221 C953.471953,592.982923 952.683308,592.490694 952.49,591.7 L951.81,588.6 C951.374009,586.028593 953.032817,583.567573 955.579943,583.006885 C958.127069,582.446197 960.665945,583.983198 961.35,586.5 L964.95,602.89 C965.567358,606.090962 963.51592,609.199201 960.33,609.89 C959.916222,609.981633 959.4938,610.028569 959.07,610.03 Z" id="Shape" fill="#000000" fill-rule="nonzero"></path>
                <path d="M424.02,152.82 L424.02,165.49" id="Shape" stroke="#FFFFFF" stroke-width="3" stroke-linecap="round"></path>
                <path d="M430.35,159.16 L417.69,159.16" id="Shape" stroke="#FFFFFF" stroke-width="3" stroke-linecap="round"></path>
                <path d="M1189.55,152.82 L1189.55,165.49" id="Shape" stroke="#FFFFFF" stroke-width="3" stroke-linecap="round"></path>
                <path d="M1195.88,159.16 L1183.22,159.16" id="Shape" stroke="#FFFFFF" stroke-width="3" stroke-linecap="round"></path>
                <path d="M1297.68,299.25 L1297.68,311.91" id="Shape" stroke="#FFFFFF" stroke-width="3" stroke-linecap="round"></path>
                <path d="M1304.02,305.58 L1291.35,305.58" id="Shape" stroke="#FFFFFF" stroke-width="3" stroke-linecap="round"></path>
                <path d="M315.89,299.25 L315.89,311.91" id="Shape" stroke="#FFFFFF" stroke-width="3" stroke-linecap="round"></path>
                <path d="M322.22,305.58 L309.55,305.58" id="Shape" stroke="#FFFFFF" stroke-width="3" stroke-linecap="round"></path>
                <path d="M1031.2,237.09 L1031.2,249.76" id="Shape" stroke="#FFFFFF" stroke-width="3" stroke-linecap="round"></path>
                <path d="M1037.53,243.43 L1024.86,243.43" id="Shape" stroke="#FFFFFF" stroke-width="3" stroke-linecap="round"></path>
                <path d="M582.37,237.09 L582.37,249.76" id="Shape" stroke="#FFFFFF" stroke-width="3" stroke-linecap="round"></path>
                <path d="M588.71,243.43 L576.04,243.43" id="Shape" stroke="#FFFFFF" stroke-width="3" stroke-linecap="round"></path>
                <path d="M126.28,343.37 L138.95,343.37" id="Shape" stroke="#FFFFFF" stroke-width="3" stroke-linecap="round"></path>
                <path d="M132.62,337.04 L132.62,349.7" id="Shape" stroke="#FFFFFF" stroke-width="3" stroke-linecap="round"></path>
                <path d="M125.62,499.59 L138.28,499.82" id="Shape" stroke="#FFFFFF" stroke-width="3" stroke-linecap="round"></path>
                <path d="M132.07,493.37 L131.83,506.03" id="Shape" stroke="#FFFFFF" stroke-width="3" stroke-linecap="round"></path>
                <path d="M932.24,129.11 L932.24,149.27" id="Shape" stroke="#FFFFFF" stroke-width="3" stroke-linecap="round"></path>
                <path d="M942.32,139.19 L922.16,139.19" id="Shape" stroke="#FFFFFF" stroke-width="3" stroke-linecap="round"></path>
                <path d="M681.33,129.11 L681.33,149.27" id="Shape" stroke="#FFFFFF" stroke-width="3" stroke-linecap="round"></path>
                <path d="M691.41,139.19 L671.25,139.19" id="Shape" stroke="#FFFFFF" stroke-width="3" stroke-linecap="round"></path>
                <path d="M806.78,7.5 L806.78,27.67" id="Shape" stroke="#FFFFFF" stroke-width="3" stroke-linecap="round"></path>
                <path d="M816.87,17.58 L796.7,17.58" id="Shape" stroke="#FFFFFF" stroke-width="3" stroke-linecap="round"></path>
                <path d="M62.58,414.25 L62.58,434.42" id="Shape" stroke="#FFFFFF" stroke-width="3" stroke-linecap="round"></path>
                <path d="M72.67,424.33 L52.5,424.33" id="Shape" stroke="#FFFFFF" stroke-width="3" stroke-linecap="round"></path>
                <path d="M1538.95,414.25 L1538.95,434.42" id="Shape" stroke="#FFFFFF" stroke-width="3" stroke-linecap="round"></path>
                <path d="M1549.04,424.33 L1528.87,424.33" id="Shape" stroke="#FFFFFF" stroke-width="3" stroke-linecap="round"></path>
                <g id="Group-2" transform="translate(1309.000000, 622.000000)">
                    <path d="M20.26,19.57 C27.199884,12.6301156 37.3149856,9.91978205 46.7950438,12.4599559 C56.275102,15.0001297 63.6798703,22.404898 66.2200441,31.8849562 C68.7602179,41.3650144 66.0498844,51.480116 59.11,58.42" id="Shape" fill="#FFFFFF" fill-rule="nonzero"></path>
                    <circle id="Oval" stroke="#231F20" stroke-width="3" transform="translate(39.690944, 39.000150) rotate(-45.000000) translate(-39.690944, -39.000150) " cx="39.6909442" cy="39.00015" r="27.47"></circle>
                    <path d="M45.85,40.51 C45.4680552,40.5106245 45.1273146,40.2701016 45,39.91 L43.64,35.97 C43.2272968,34.6170075 42.2342176,33.5176578 40.93,32.97 C39.18,32.42 36.8,33.29 34.02,35.49 C33.6319653,35.727095 33.128033,35.6374896 32.8455162,35.2811621 C32.5629995,34.9248347 32.5906673,34.4137462 32.91,34.09 C36.23,31.46 39.11,30.51 41.49,31.27 C43.3468767,31.9908445 44.7698943,33.5244593 45.35,35.43 L46.69,39.32 C46.7834295,39.5944863 46.7388941,39.8971734 46.5703632,40.1331166 C46.4018324,40.3690598 46.1299507,40.5093567 45.84,40.51 L45.85,40.51 Z" id="Shape" stroke="#231F20" fill="#231F20" fill-rule="nonzero"></path>
                    <path d="M39.85,55.03 C31.9744077,54.9101755 25.3574889,49.0763549 24.2518303,41.2778402 C23.1461716,33.4793255 27.8806986,26.0361184 35.4126073,23.7318477 C42.9445159,21.4275769 51.0331181,24.9477463 54.48,32.03 C55.7072952,34.4744927 55.855964,37.3209549 54.89,39.88 C54.1893363,41.5654685 52.7921052,42.8642003 51.06,43.44 C49.892084,43.907815 48.5786346,43.845791 47.46,43.27 C47.003682,43.0107279 46.5973086,42.6720834 46.26,42.27 C45.1522336,44.3928405 43.2955225,46.0285994 41.05,46.86 C39.8282244,47.3942136 38.4421555,47.4107204 37.2080042,46.9057546 C35.9738529,46.4007889 34.9968919,45.4174241 34.5,44.18 C33.7676478,42.8793369 33.7676478,41.2906631 34.5,39.99 C36.59,36.48 43.95,35.99 44.79,35.9 C45.2570173,35.9114147 45.6376605,36.278251 45.6663144,36.7445282 C45.6949683,37.2108054 45.3621056,37.6214883 44.9,37.69 C42.9,37.81 37.41,38.62 36.05,40.91 C35.6312421,41.7009774 35.657809,42.6535909 36.12,43.42 C36.4312848,44.2539088 37.0788277,44.918523 37.9043559,45.2513973 C38.7298841,45.5842715 39.6573276,45.5547325 40.46,45.17 C43,44.28 45.34,41.46 44.94,39.78 C44.8705156,39.3202906 45.1626211,38.8833195 45.6139739,38.7717783 C46.0653267,38.6602371 46.5273507,38.9108429 46.68,39.35 C46.9334948,40.2937001 47.5149245,41.1162104 48.32,41.67 C49.0059335,41.9832276 49.7940665,41.9832276 50.48,41.67 C51.7284285,41.2528806 52.7350461,40.3155591 53.24,39.1 C53.9888885,37.0096187 53.847925,34.7036011 52.85,32.72 C50.0849363,26.8778096 43.7426352,23.6190042 37.3829385,24.7727041 C31.0232418,25.926404 26.2297536,31.2053307 25.6929896,37.6464991 C25.1562256,44.0876675 29.0098432,50.0871864 35.0908628,52.2776127 C41.1718823,54.4680389 47.9660919,52.3039428 51.66,47 C51.8115369,46.6785089 52.138081,46.4763076 52.4934144,46.4839367 C52.8487477,46.4915657 53.1663123,46.7075961 53.303911,47.035295 C53.4415098,47.3629939 53.3733689,47.7409796 53.13,48 C50.1176208,52.3721274 45.1593154,54.9968929 39.85,55.03 L39.85,55.03 Z" id="Shape" stroke="#231F20" fill="#231F20" fill-rule="nonzero"></path>
                </g>
                <path d="M1189.55,694.56 L1189.55,681.89" id="Shape" stroke="#FFFFFF" stroke-width="3" stroke-linecap="round"></path>
                <path d="M1183.22,688.22 L1195.88,688.22" id="Shape" stroke="#FFFFFF" stroke-width="3" stroke-linecap="round"></path>
                <path d="M424.02,694.56 L424.02,681.89" id="Shape" stroke="#FFFFFF" stroke-width="3" stroke-linecap="round"></path>
                <path d="M417.69,688.22 L430.35,688.22" id="Shape" stroke="#FFFFFF" stroke-width="3" stroke-linecap="round"></path>
                <path d="M1311.36,508.13 L1311.36,495.47" id="Shape" stroke="#FFFFFF" stroke-width="3" stroke-linecap="round"></path>
                <path d="M1305.02,501.8 L1317.69,501.8" id="Shape" stroke="#FFFFFF" stroke-width="3" stroke-linecap="round"></path>
                <path d="M302.21,508.13 L302.21,495.47" id="Shape" stroke="#FFFFFF" stroke-width="3" stroke-linecap="round"></path>
                <path d="M295.88,501.8 L308.54,501.8" id="Shape" stroke="#FFFFFF" stroke-width="3" stroke-linecap="round"></path>
                <path d="M582.37,594.55 L582.37,581.89" id="Shape" stroke="#FFFFFF" stroke-width="3" stroke-linecap="round"></path>
                <path d="M576.04,588.22 L588.71,588.22" id="Shape" stroke="#FFFFFF" stroke-width="3" stroke-linecap="round"></path>
                <path d="M1031.2,594.55 L1031.2,581.89" id="Shape" stroke="#FFFFFF" stroke-width="3" stroke-linecap="round"></path>
                <path d="M1024.86,588.22 L1037.53,588.22" id="Shape" stroke="#FFFFFF" stroke-width="3" stroke-linecap="round"></path>
                <path d="M1475.2,342.51 L1487.86,342.51" id="Shape" stroke="#FFFFFF" stroke-width="3" stroke-linecap="round"></path>
                <path d="M1481.53,336.18 L1481.53,348.84" id="Shape" stroke="#FFFFFF" stroke-width="3" stroke-linecap="round"></path>
                <path d="M1474.53,498.73 L1487.19,498.96" id="Shape" stroke="#FFFFFF" stroke-width="3" stroke-linecap="round"></path>
                <path d="M1480.98,492.51 L1480.74,505.17" id="Shape" stroke="#FFFFFF" stroke-width="3" stroke-linecap="round"></path>
                <path d="M666.01,694.65 L666.01,674.48" id="Shape" stroke="#FFFFFF" stroke-width="3" stroke-linecap="round"></path>
                <path d="M655.93,684.56 L676.09,684.56" id="Shape" stroke="#FFFFFF" stroke-width="3" stroke-linecap="round"></path>
                <path d="M916.92,694.65 L916.92,674.48" id="Shape" stroke="#FFFFFF" stroke-width="3" stroke-linecap="round"></path>
                <path d="M906.84,684.56 L927.01,684.56" id="Shape" stroke="#FFFFFF" stroke-width="3" stroke-linecap="round"></path>
                <path d="M806.78,804.88 L806.78,784.72" id="Shape" stroke="#FFFFFF" stroke-width="3" stroke-linecap="round"></path>
                <path d="M796.7,794.8 L816.87,794.8" id="Shape" stroke="#FFFFFF" stroke-width="3" stroke-linecap="round"></path>
                <path d="M942.44,482.16 L942.44,494.82" id="Shape" stroke="#FFFFFF" stroke-width="3" stroke-linecap="round"></path>
                <path d="M948.77,488.49 L936.11,488.49" id="Shape" stroke="#FFFFFF" stroke-width="3" stroke-linecap="round"></path>
                <circle id="Oval" fill="#FFFFFF" fill-rule="nonzero" cx="1033.27" cy="402.98" r="3.32"></circle>
                <path d="M806.78,268.66 C802.334108,268.66 798.73,265.055892 798.73,260.61 C798.73,256.164108 802.334108,252.56 806.78,252.56 C811.225892,252.56 814.83,256.164108 814.83,260.61 C814.82449,265.053608 811.223608,268.65449 806.78,268.66 Z M806.78,255.55 C803.990962,255.55 801.73,257.810962 801.73,260.6 C801.73,263.389038 803.990962,265.65 806.78,265.65 C809.569038,265.65 811.83,263.389038 811.83,260.6 C811.819006,257.81715 809.562866,255.565478 806.78,255.56 L806.78,255.55 Z" id="Shape" fill="#000000" fill-rule="nonzero"></path>
                <path d="M498.64,91.23 C494.194108,91.23 490.59,87.6258922 490.59,83.18 C490.59,78.7341078 494.194108,75.13 498.64,75.13 C503.085892,75.13 506.69,78.7341078 506.69,83.18 C506.68449,87.623608 503.083608,91.2244903 498.64,91.23 L498.64,91.23 Z M498.64,78.12 C495.850962,78.12 493.59,80.380962 493.59,83.17 C493.59,85.959038 495.850962,88.22 498.64,88.22 C501.429038,88.22 503.69,85.959038 503.69,83.17 C503.684498,80.3832442 501.426756,78.125502 498.64,78.12 Z" id="Shape" fill="#000000" fill-rule="nonzero"></path>
                <path d="M1114.92,91.23 C1110.47411,91.23 1106.87,87.6258922 1106.87,83.18 C1106.87,78.7341078 1110.47411,75.13 1114.92,75.13 C1119.36589,75.13 1122.97,78.7341078 1122.97,83.18 C1122.96449,87.623608 1119.36361,91.2244903 1114.92,91.23 Z M1114.92,78.12 C1112.87747,78.12 1111.03605,79.350393 1110.25441,81.2374487 C1109.47276,83.1245043 1109.90482,85.2965994 1111.34911,86.7408892 C1112.7934,88.1851791 1114.9655,88.6172357 1116.85255,87.8355916 C1118.73961,87.0539476 1119.97,85.2125343 1119.97,83.17 C1119.9645,80.3832442 1117.70676,78.125502 1114.92,78.12 Z" id="Shape" fill="#000000" fill-rule="nonzero"></path>
                <path d="M155.64,421.23 C155.64,416.784108 159.244108,413.18 163.69,413.18 C168.135892,413.18 171.74,416.784108 171.74,421.23 C171.74,425.675892 168.135892,429.28 163.69,429.28 C159.246392,429.27449 155.64551,425.673608 155.64,421.23 Z M168.75,421.23 C168.75,418.440962 166.489038,416.18 163.7,416.18 C160.910962,416.18 158.65,418.440962 158.65,421.23 C158.65,424.019038 160.910962,426.28 163.7,426.28 C166.486756,426.274498 168.744498,424.016756 168.75,421.23 L168.75,421.23 Z" id="Shape" fill="#000000" fill-rule="nonzero"></path>
                <path d="M195,262.01 C195,257.564108 198.604108,253.96 203.05,253.96 C207.495892,253.96 211.1,257.564108 211.1,262.01 C211.1,266.455892 207.495892,270.06 203.05,270.06 C198.606392,270.05449 195.00551,266.453608 195,262.01 Z M208.11,262.01 C208.11,259.220962 205.849038,256.96 203.06,256.96 C200.270962,256.96 198.01,259.220962 198.01,262.01 C198.01,264.799038 200.270962,267.06 203.06,267.06 C205.846756,267.054498 208.104498,264.796756 208.11,262.01 L208.11,262.01 Z" id="Shape" fill="#000000" fill-rule="nonzero"></path>
                <path d="M195,580.37 C195,575.924108 198.604108,572.32 203.05,572.32 C207.495892,572.32 211.1,575.924108 211.1,580.37 C211.1,584.815892 207.495892,588.42 203.05,588.42 C198.606392,588.41449 195.00551,584.813608 195,580.37 Z M208.11,580.37 C208.11,578.327466 206.879607,576.486052 204.992551,575.704408 C203.105496,574.922764 200.933401,575.354821 199.489111,576.799111 C198.044821,578.243401 197.612764,580.415496 198.394408,582.302551 C199.176052,584.189607 201.017466,585.42 203.06,585.42 C205.846756,585.414498 208.104498,583.156756 208.11,580.37 L208.11,580.37 Z" id="Shape" fill="#000000" fill-rule="nonzero"></path>
                <path d="M521.55,312.57 C517.104108,312.57 513.5,308.965892 513.5,304.52 C513.5,300.074108 517.104108,296.47 521.55,296.47 C525.995892,296.47 529.6,300.074108 529.6,304.52 C529.59449,308.963608 525.993608,312.56449 521.55,312.57 Z M521.55,299.46 C518.760962,299.46 516.5,301.720962 516.5,304.51 C516.5,307.299038 518.760962,309.56 521.55,309.56 C524.339038,309.56 526.6,307.299038 526.6,304.51 C526.594498,301.723244 524.336756,299.465502 521.55,299.46 L521.55,299.46 Z" id="Shape" fill="#000000" fill-rule="nonzero"></path>
                <path d="M1092.02,312.57 C1087.57411,312.57 1083.97,308.965892 1083.97,304.52 C1083.97,300.074108 1087.57411,296.47 1092.02,296.47 C1096.46589,296.47 1100.07,300.074108 1100.07,304.52 C1100.06449,308.963608 1096.46361,312.56449 1092.02,312.57 Z M1092.02,299.46 C1089.23096,299.46 1086.97,301.720962 1086.97,304.51 C1086.97,307.299038 1089.23096,309.56 1092.02,309.56 C1094.80904,309.56 1097.07,307.299038 1097.07,304.51 C1097.0645,301.723244 1094.80676,299.465502 1092.02,299.46 L1092.02,299.46 Z" id="Shape" fill="#000000" fill-rule="nonzero"></path>
                <circle id="Oval" fill="#000000" fill-rule="nonzero" cx="1053.48" cy="135.87" r="3.32"></circle>
                <circle id="Oval" fill="#000000" fill-rule="nonzero" cx="616.69" cy="138.55" r="3.32"></circle>
                <circle id="Oval" fill="#000000" fill-rule="nonzero" cx="1189.55" cy="290.78" r="3.32"></circle>
                <circle id="Oval" fill="#000000" fill-rule="nonzero" cx="424.02" cy="290.78" r="3.32"></circle>
                <circle id="Oval" fill="#000000" fill-rule="nonzero" cx="901.78" cy="60.2" r="3.32"></circle>
                <circle id="Oval" fill="#000000" fill-rule="nonzero" cx="711.78" cy="60.2" r="3.32"></circle>
                <circle id="Oval" fill="#000000" fill-rule="nonzero" cx="875.4" cy="195.52" r="3.32"></circle>
                <circle id="Oval" fill="#000000" fill-rule="nonzero" cx="738.17" cy="195.52" r="3.32"></circle>
                <path d="M806.79,558.71 C810.045921,558.71 812.981243,560.67132 814.22723,563.679398 C815.473217,566.687477 814.784493,570.149926 812.48221,572.45221 C810.179926,574.754493 806.717477,575.443217 803.709398,574.19723 C800.70132,572.951243 798.74,570.015921 798.74,566.76 C798.74551,562.316392 802.346392,558.71551 806.79,558.71 L806.79,558.71 Z M806.79,571.82 C808.832534,571.82 810.673948,570.589607 811.455592,568.702551 C812.237236,566.815496 811.805179,564.643401 810.360889,563.199111 C808.916599,561.754821 806.744504,561.322764 804.857449,562.104408 C802.970393,562.886052 801.74,564.727466 801.74,566.77 C801.745502,569.556756 804.003244,571.814498 806.79,571.82 Z" id="Shape" fill="#000000" fill-rule="nonzero"></path>
                <path d="M1114.93,736.15 C1119.36804,736.16657 1122.95546,739.771897 1122.94994,744.209963 C1122.94441,748.648028 1119.34803,752.244414 1114.90996,752.249938 C1110.4719,752.255461 1106.86657,748.668038 1106.85,744.23 C1106.84467,742.085422 1107.69424,740.027145 1109.21069,738.510694 C1110.72714,736.994244 1112.78542,736.144672 1114.93,736.15 Z M1114.93,749.26 C1117.71767,749.243418 1119.96461,746.971107 1119.94989,744.183426 C1119.93517,741.395746 1117.66436,739.147288 1114.87667,739.160143 C1112.08898,739.172998 1109.83901,741.442302 1109.85,744.23 C1109.88293,747.008911 1112.15092,749.24118 1114.93,749.23 L1114.93,749.26 Z" id="Shape" fill="#000000" fill-rule="nonzero"></path>
                <path d="M498.65,736.15 C503.095892,736.15 506.7,739.754108 506.7,744.2 C506.7,748.645892 503.095892,752.25 498.65,752.25 C494.204108,752.25 490.6,748.645892 490.6,744.2 C490.60551,739.756392 494.206392,736.15551 498.65,736.15 L498.65,736.15 Z M498.65,749.26 C501.439038,749.26 503.7,746.999038 503.7,744.21 C503.7,741.420962 501.439038,739.16 498.65,739.16 C495.860962,739.16 493.6,741.420962 493.6,744.21 C493.621932,746.985033 495.874886,749.224602 498.65,749.23 L498.65,749.26 Z" id="Shape" fill="#000000" fill-rule="nonzero"></path>
                <path d="M1092.02,517.34 C1096.46589,517.34 1100.07,520.944108 1100.07,525.39 C1100.07,529.835892 1096.46589,533.44 1092.02,533.44 C1087.57411,533.44 1083.97,529.835892 1083.97,525.39 C1083.97551,520.946392 1087.57639,517.34551 1092.02,517.34 Z M1092.02,530.45 C1094.06253,530.45 1095.90395,529.219607 1096.68559,527.332551 C1097.46724,525.445496 1097.03518,523.273401 1095.59089,521.829111 C1094.1466,520.384821 1091.9745,519.952764 1090.08745,520.734408 C1088.20039,521.516052 1086.97,523.357466 1086.97,525.4 C1086.98099,528.18285 1089.23713,530.434522 1092.02,530.44 L1092.02,530.45 Z" id="Shape" fill="#000000" fill-rule="nonzero"></path>
                <path d="M521.55,512.28 C525.995892,512.28 529.6,515.884108 529.6,520.33 C529.6,524.775892 525.995892,528.38 521.55,528.38 C517.104108,528.38 513.5,524.775892 513.5,520.33 C513.50551,515.886392 517.106392,512.28551 521.55,512.28 Z M521.55,525.39 C523.592534,525.39 525.433948,524.159607 526.215592,522.272551 C526.997236,520.385496 526.565179,518.213401 525.120889,516.769111 C523.676599,515.324821 521.504504,514.892764 519.617449,515.674408 C517.730393,516.456052 516.5,518.297466 516.5,520.34 C516.505502,523.126756 518.763244,525.384498 521.55,525.39 Z" id="Shape" fill="#000000" fill-rule="nonzero"></path>
                <path d="M366.27,409.18 C370.715892,409.18 374.32,412.784108 374.32,417.23 C374.32,421.675892 370.715892,425.28 366.27,425.28 C361.824108,425.28 358.22,421.675892 358.22,417.23 C358.22551,412.786392 361.826392,409.18551 366.27,409.18 Z M366.27,422.29 C369.059038,422.29 371.32,420.029038 371.32,417.24 C371.32,414.450962 369.059038,412.19 366.27,412.19 C363.480962,412.19 361.22,414.450962 361.22,417.24 C361.230994,420.02285 363.487134,422.274522 366.27,422.28 L366.27,422.29 Z" id="Shape" fill="#000000" fill-rule="nonzero"></path>
                <path d="M1247.3,409.18 C1251.74589,409.18 1255.35,412.784108 1255.35,417.23 C1255.35,421.675892 1251.74589,425.28 1247.3,425.28 C1242.85411,425.28 1239.25,421.675892 1239.25,417.23 C1239.25551,412.786392 1242.85639,409.18551 1247.3,409.18 Z M1247.3,422.29 C1250.08904,422.29 1252.35,420.029038 1252.35,417.24 C1252.35,414.450962 1250.08904,412.19 1247.3,412.19 C1244.51096,412.19 1242.25,414.450962 1242.25,417.24 C1242.26099,420.02285 1244.51713,422.274522 1247.3,422.28 L1247.3,422.29 Z" id="Shape" fill="#000000" fill-rule="nonzero"></path>
                <circle id="Oval" fill="#000000" fill-rule="nonzero" cx="584.48" cy="691.51" r="3.32"></circle>
                <circle id="Oval" fill="#000000" fill-rule="nonzero" cx="591.59" cy="471.34" r="3.32"></circle>
                <circle id="Oval" fill="#000000" fill-rule="nonzero" cx="591.59" cy="337.36" r="3.32"></circle>
                <circle id="Oval" fill="#000000" fill-rule="nonzero" cx="1031.59" cy="471.34" r="3.32"></circle>
                <circle id="Oval" fill="#000000" fill-rule="nonzero" cx="1031.59" cy="337.36" r="3.32"></circle>
                <circle id="Oval" fill="#000000" fill-rule="nonzero" cx="1021.27" cy="688.83" r="3.32"></circle>
                <circle id="Oval" fill="#000000" fill-rule="nonzero" cx="412.6" cy="514.34" r="3.32"></circle>
                <circle id="Oval" fill="#000000" fill-rule="nonzero" cx="1200.97" cy="517.65" r="3.32"></circle>
                <circle id="Oval" fill="#000000" fill-rule="nonzero" cx="711.78" cy="756.38" r="3.32"></circle>
                <circle id="Oval" fill="#000000" fill-rule="nonzero" cx="901.78" cy="756.38" r="3.32"></circle>
                <circle id="Oval" fill="#000000" fill-rule="nonzero" cx="738.17" cy="631.86" r="3.32"></circle>
                <circle id="Oval" fill="#000000" fill-rule="nonzero" cx="875.4" cy="631.86" r="3.32"></circle>
                <path d="M673.41,494.82 L673.41,482.16" id="Shape" stroke="#FFFFFF" stroke-width="3" stroke-linecap="round"></path>
                <path d="M667.08,488.49 L679.74,488.49" id="Shape" stroke="#FFFFFF" stroke-width="3" stroke-linecap="round"></path>
                <path d="M942.44,312.16 L942.44,324.82" id="Shape" stroke="#FFFFFF" stroke-width="3" stroke-linecap="round"></path>
                <path d="M948.77,318.49 L936.11,318.49" id="Shape" stroke="#FFFFFF" stroke-width="3" stroke-linecap="round"></path>
                <path d="M673.41,324.82 L673.41,312.16" id="Shape" stroke="#FFFFFF" stroke-width="3" stroke-linecap="round"></path>
                <path d="M667.08,318.49 L679.74,318.49" id="Shape" stroke="#FFFFFF" stroke-width="3" stroke-linecap="round"></path>
                <circle id="Oval" fill="#FFFFFF" fill-rule="nonzero" cx="592.49" cy="402.98" r="3.32"></circle>
                <g id="Group-6" transform="translate(183.000000, 323.000000)" fill-rule="nonzero">
                    <path d="M54.34,18.07 L30.34,0.79 C29.181239,-0.0443786307 27.618761,-0.0443786307 26.46,0.79 L2.34,18.07 C1.45596274,18.6642396 0.90955753,19.6455387 0.87,20.71 C0.851107033,20.8460137 0.851107033,20.9839863 0.87,21.12 L0.87,49.42 C0.966909823,51.2695392 2.51849152,52.7058606 4.37,52.66 L52.37,52.66 C54.1861546,52.6886875 55.6943181,51.2648038 55.77,49.45 L55.77,20.72 C55.7476192,19.657998 55.2153899,18.6716989 54.34,18.07 Z M28.34,33.23 L4.34,20.31 L28.17,3.23 C28.2848458,3.15260992 28.4351542,3.15260992 28.55,3.23 L52.23,20.23 L28.34,33.23 Z" id="Shape" fill="#000000"></path>
                    <path d="M52.35,49.66 L4.35,49.66 C4.15679981,49.6546916 3.97498615,49.567421 3.85,49.42 L3.85,23.42 L27.63,36.23 C28.075994,36.4718318 28.614006,36.4718318 29.06,36.23 L52.76,23.36 L52.76,49.36 C52.7092184,49.542826 52.5396212,49.6669215 52.35,49.66 L52.35,49.66 Z" id="Shape" fill="#FFFFFF"></path>
                </g>
                <path d="M833.72,720.75 C833.173812,720.214409 832.312086,720.175631 831.72,720.66 L800.43,747.03 L800.43,747.03 L800.38,747.03 L794.7,752.71 C789.923805,753.289854 785.972295,756.700007 784.7,761.34 C782.85,768.12 779.85,771.17 779.85,771.23 C779.465635,771.610989 779.3163,772.169484 779.459223,772.691463 C779.602145,773.213442 780.015162,773.61796 780.54,773.75 C782.206969,774.125552 783.91128,774.310074 785.62,774.3 C789.134292,774.397968 792.593793,773.413529 795.53,771.48 C798.99,769.03 801.04,765.12 801.65,759.87 L807.36,754.16 L807.36,754.16 L807.42,754.1 L833.85,722.78 C834.342175,722.17281 834.285605,721.28945 833.72,720.75 L833.72,720.75 Z M806.21,750.85 L803.62,748.23 L820.14,734.3 L806.21,750.85 Z" id="Shape" fill="#000000" fill-rule="nonzero"></path>
                <path d="M1333.8,359.98 L1333.8,359.98 C1333.40231,359.97965 1333.02103,359.821385 1332.74,359.54 L1331.27,358.07 C1330.68509,357.484365 1330.68509,356.535635 1331.27,355.95 L1332.74,354.48 C1333.32564,353.895093 1334.27436,353.895093 1334.86,354.48 L1336.33,355.95 C1336.91491,356.535635 1336.91491,357.484365 1336.33,358.07 L1334.86,359.54 C1334.57897,359.821385 1334.19769,359.97965 1333.8,359.98 L1333.8,359.98 Z" id="Shape" fill="#FFFFFF" fill-rule="nonzero"></path>
                <path d="M1363.13,389.32 C1362.73231,389.31965 1362.35103,389.161385 1362.07,388.88 L1360.6,387.41 C1360.01509,386.824365 1360.01509,385.875635 1360.6,385.29 L1362.07,383.82 C1362.65564,383.235093 1363.60436,383.235093 1364.19,383.82 L1365.66,385.29 C1366.24491,385.875635 1366.24491,386.824365 1365.66,387.41 L1364.19,388.88 C1363.90897,389.161385 1363.52769,389.31965 1363.13,389.32 L1363.13,389.32 Z" id="Shape" fill="#FFFFFF" fill-rule="nonzero"></path>
                <path d="M1352.32,376.91 C1351.9272,376.909676 1351.5502,376.755285 1351.27,376.48 L1349.66,374.89 C1349.25714,374.517905 1349.08945,373.955616 1349.22269,373.423639 C1349.35594,372.891662 1349.76888,372.474807 1350.29958,372.336547 C1350.83028,372.198287 1351.39412,372.360664 1351.77,372.76 L1353.38,374.35 C1353.81434,374.776721 1353.94763,375.423663 1353.71734,375.987319 C1353.48705,376.550974 1352.93888,376.919498 1352.33,376.92 L1352.32,376.91 Z" id="Shape" fill="#FFFFFF" fill-rule="nonzero"></path>
                <path d="M1358.8,383.32 C1358.4072,383.319676 1358.0302,383.165285 1357.75,382.89 L1356.99,382.14 C1356.99004,381.738686 1356.82926,381.354092 1356.54361,381.072206 C1356.25797,380.790319 1355.87128,380.634649 1355.47,380.64 L1354.71,379.89 C1354.30714,379.517905 1354.13945,378.955616 1354.27269,378.423639 C1354.40594,377.891662 1354.81888,377.474807 1355.34958,377.336547 C1355.88028,377.198287 1356.44412,377.360664 1356.82,377.76 L1357.58,378.51 C1357.86752,378.791823 1358.02967,379.177396 1358.03,379.58 C1358.43296,379.573467 1358.82181,379.728287 1359.11,380.01 L1359.87,380.76 C1360.30434,381.186721 1360.43763,381.833663 1360.20734,382.397319 C1359.97705,382.960974 1359.42888,383.329498 1358.82,383.33 L1358.8,383.32 Z" id="Shape" fill="#FFFFFF" fill-rule="nonzero"></path>
                <path d="M1362.51,386.99 C1362.1172,386.989676 1361.7402,386.835285 1361.46,386.56 L1359.85,384.97 C1359.44714,384.597905 1359.27945,384.035616 1359.41269,383.503639 C1359.54594,382.971662 1359.95888,382.554807 1360.48958,382.416547 C1361.02028,382.278287 1361.58412,382.440664 1361.96,382.84 L1363.57,384.43 C1364.00434,384.856721 1364.13763,385.503663 1363.90734,386.067319 C1363.67705,386.630974 1363.12888,386.999498 1362.52,387 L1362.51,386.99 Z" id="Shape" fill="#FFFFFF" fill-rule="nonzero"></path>
                <path d="M1336.14,360.83 C1335.74209,360.830756 1335.36041,360.672322 1335.08,360.39 L1333.49,358.79 C1333.1113,358.409512 1332.96435,357.855892 1333.10451,357.337683 C1333.24467,356.819474 1333.65065,356.415404 1334.16951,356.277683 C1334.68838,356.139962 1335.2413,356.289512 1335.62,356.67 L1337.21,358.27 C1337.63844,358.698974 1337.76652,359.343684 1337.53457,359.903847 C1337.30263,360.46401 1336.75628,360.829467 1336.15,360.83 L1336.14,360.83 Z" id="Shape" fill="#FFFFFF" fill-rule="nonzero"></path>
                <path d="M1342.37,367.09 C1341.97231,367.08965 1341.59103,366.931385 1341.31,366.65 L1340.58,365.92 C1340.56425,365.118621 1339.92125,364.471219 1339.12,364.45 L1338.39,363.71 C1337.99066,363.334121 1337.82829,362.770275 1337.96655,362.239579 C1338.10481,361.708883 1338.52166,361.295941 1339.05364,361.162694 C1339.58562,361.029446 1340.14791,361.197135 1340.52,361.6 L1341.25,362.34 C1341.26575,363.141379 1341.90875,363.788781 1342.71,363.81 L1343.44,364.54 C1343.86844,364.968974 1343.99652,365.613684 1343.76457,366.173847 C1343.53263,366.73401 1342.98628,367.099467 1342.38,367.1 L1342.37,367.09 Z" id="Shape" fill="#FFFFFF" fill-rule="nonzero"></path>
                <path d="M1345.98,370.73 C1345.58231,370.72965 1345.20103,370.571385 1344.92,370.29 L1343.33,368.69 C1342.74458,368.101817 1342.74682,367.150422 1343.335,366.565 C1343.92318,365.979578 1344.87458,365.981817 1345.46,366.57 L1347.05,368.17 C1347.47844,368.598974 1347.60652,369.243684 1347.37457,369.803847 C1347.14263,370.36401 1346.59628,370.729467 1345.99,370.73 L1345.98,370.73 Z" id="Shape" fill="#FFFFFF" fill-rule="nonzero"></path>
                <path d="M1320.91,372.33 C1320.27494,372.326343 1319.711,371.923156 1319.50211,371.323423 C1319.29321,370.723691 1319.48463,370.057402 1319.98,369.66 C1327.52836,363.761856 1338.04008,363.473919 1345.9,368.95 C1346.33944,369.257248 1346.58158,369.775594 1346.53521,370.309782 C1346.48884,370.84397 1346.16101,371.312843 1345.67521,371.539782 C1345.18941,371.766721 1344.61944,371.717249 1344.18,371.41 C1337.40874,366.6852 1328.34789,366.928554 1321.84,372.01 C1321.57477,372.218153 1321.24715,372.330883 1320.91,372.33 Z" id="Shape" fill="#000000" fill-rule="nonzero"></path>
                <path d="M1349.06,400.49 C1348.48053,400.489684 1347.95307,400.155624 1347.7051,399.631892 C1347.45713,399.108159 1347.533,398.48844 1347.9,398.04 C1353.12112,391.592243 1353.3993,382.453374 1348.58,375.7 C1348.14481,375.026618 1348.31611,374.130054 1348.96889,373.664541 C1349.62168,373.199028 1350.52514,373.32917 1351.02,373.96 C1356.63421,381.817975 1356.31093,392.457378 1350.23,399.96 C1349.93919,400.303155 1349.50974,400.497693 1349.06,400.49 L1349.06,400.49 Z" id="Shape" fill="#000000" fill-rule="nonzero"></path>
                <path d="M1324.28,372.08 L1319.62,367.42 C1319.02579,366.856186 1318.09421,366.856186 1317.5,367.42 L1312.84,372.08 C1312.25509,372.665635 1312.25509,373.614365 1312.84,374.2 L1317.5,378.86 C1318.08564,379.444907 1319.03436,379.444907 1319.62,378.86 L1324.28,374.2 C1324.86491,373.614365 1324.86491,372.665635 1324.28,372.08 L1324.28,372.08 Z M1318.56,375.68 L1316.02,373.14 L1318.56,370.6 L1321.1,373.14 L1318.56,375.68 Z" id="Shape" fill="#000000" fill-rule="nonzero"></path>
                <path d="M1353.85,370.71 L1349.19,366.05 C1348.60436,365.465093 1347.65564,365.465093 1347.07,366.05 L1342.41,370.71 C1341.82509,371.295635 1341.82509,372.244365 1342.41,372.83 L1347.07,377.49 C1347.65564,378.074907 1348.60436,378.074907 1349.19,377.49 L1353.85,372.83 C1354.43491,372.244365 1354.43491,371.295635 1353.85,370.71 L1353.85,370.71 Z M1348.13,374.31 L1345.59,371.77 L1348.13,369.23 L1350.67,371.77 L1348.13,374.31 Z" id="Shape" fill="#000000" fill-rule="nonzero"></path>
                <path d="M1352.53,400.33 L1347.87,395.67 C1347.28436,395.085093 1346.33564,395.085093 1345.75,395.67 L1341.09,400.33 C1340.50509,400.915635 1340.50509,401.864365 1341.09,402.45 L1345.75,407.11 C1346.33564,407.694907 1347.28436,407.694907 1347.87,407.11 L1352.53,402.45 C1353.11491,401.864365 1353.11491,400.915635 1352.53,400.33 L1352.53,400.33 Z M1346.81,403.93 L1344.27,401.39 L1346.81,398.85 L1349.35,401.39 L1346.81,403.93 Z" id="Shape" fill="#000000" fill-rule="nonzero"></path>
                <g id="Group-5" transform="translate(255.000000, 709.000000)" fill-rule="nonzero">
                    <path d="M24.62,54.12 C15.1558081,54.1963843 6.50260096,48.7884164 2.42362424,40.2479999 C-1.65535248,31.7075835 -0.422939001,21.5781577 5.58489293,14.2649697 C11.5927249,6.95178162 21.2902293,3.77648355 30.46,6.12 C30.8477488,6.21458617 31.181814,6.45980307 31.3882618,6.80138025 C31.5947095,7.14295743 31.6565151,7.55272687 31.56,7.94 L26.56,28.32 C46.73,22.19 46.75,22.2 47.48,22.6 C47.8403932,22.7969861 48.1042501,23.1331326 48.21,23.53 C50.1537166,30.8461411 48.5887085,38.6501025 43.974372,44.6510902 C39.3600355,50.6520779 32.2199375,54.1691882 24.65,54.17 L24.62,54.12 Z" id="Shape" fill="#000000"></path>
                    <path d="M24.63,8.36 C15.6118459,8.36218154 7.56475502,14.0227358 4.51491732,22.5095254 C1.46507961,30.996315 4.06837441,40.4842233 11.0222988,46.226178 C17.9762231,51.9681326 27.7853089,52.7293044 35.5417897,48.1288571 C43.2982704,43.5284099 47.334085,34.5556875 45.63,25.7 C41.97,26.7 31.88,29.78 24.9,31.9 C24.3851091,32.0549601 23.8266617,31.9224655 23.43626,31.5527199 C23.0458582,31.1829744 22.8832312,30.6325466 23.01,30.11 L28.3,8.68 C27.0882235,8.46739517 25.8602857,8.36032703 24.63,8.36 L24.63,8.36 Z" id="Shape" fill="#FFFFFF"></path>
                    <path d="M54.04,14.7 C51.9353591,7.47103746 46.1528852,1.90174236 38.85,0.07 C38.4641088,-0.0268271061 38.0555579,0.033617909 37.7142359,0.238036043 C37.3729138,0.442454177 37.1267842,0.774098057 37.03,1.16 L32.29,20.16 C32.1622843,20.6795308 32.3209451,21.2277582 32.7063917,21.5987764 C33.0918384,21.9697945 33.6457173,22.1074342 34.16,21.96 L53.01,16.55 C53.3974554,16.434928 53.7220761,16.1683642 53.9103225,15.8106961 C54.0985689,15.4530279 54.1345087,15.0345267 54.01,14.65 L54.04,14.7 Z M35.85,18.4 L39.59,3.4 C44.7085235,5.14960553 48.7835511,9.0853786 50.71,14.14 L35.85,18.4 Z" id="Shape" fill="#000000"></path>
                </g>
                <g id="Group-3" transform="translate(393.000000, 644.000000)" fill-rule="nonzero">
                    <path d="M43.85,46.43 L42.03,40.17 C42.0344199,40.1034066 42.0344199,40.0365934 42.03,39.97 L32.58,7.45 C32.58,7.45 32.58,7.39 32.53,7.35 L31.93,5.3 C30.9872843,2.07717864 27.6171682,0.222273935 24.39,1.15 L5.02,6.78 C3.46449055,7.22615948 2.15050995,8.2730624 1.36813506,9.68959248 C0.585760166,11.1061226 0.399329555,12.7757915 0.85,14.33 L12.8,55.46 C13.2481918,57.0110739 14.2949062,58.3201918 15.7093451,59.0986959 C17.123784,59.8772001 18.7897855,60.0611553 20.34,59.61 L39.71,53.98 C42.9375806,53.0377022 44.7908139,49.6580134 43.85,46.43 L43.85,46.43 Z M3.9,14.23 L3.69,13.51 C3.21310495,11.8725666 4.15299935,10.1583783 5.79,9.68 L25.16,4.05 C25.439505,3.96932309 25.7290865,3.92891636 26.02,3.93 C27.4022292,3.92108963 28.6244629,4.82554257 29.02,6.15 L29.23,6.87 L3.9,14.23 Z M38.85,51.1 L19.48,56.73 C17.8425666,57.2068951 16.1283783,56.2670006 15.65,54.63 L14.19,49.63 L39.49,42.28 L40.95,47.28 C41.4204705,48.9142639 40.4819333,50.6215078 38.85,51.1 L38.85,51.1 Z" id="Shape" fill="#000000"></path>
                    <path d="M27.05,46.69 C25.7174263,47.0776564 24.7497694,48.2301224 24.5985262,49.6096715 C24.447283,50.9892206 25.1422612,52.3239652 26.3591924,52.9911298 C27.5761236,53.6582944 29.0751697,53.5263914 30.1568942,52.656965 C31.2386187,51.7875386 31.6898306,50.3519393 31.3,49.02 C30.7685037,47.2040299 28.866835,46.161468 27.05,46.69 L27.05,46.69 Z" id="Shape" fill="#FFFFFF"></path>
                    <path d="M30.04,9.74 L4.76,17.08 L13.37,46.72 L38.65,39.38 L30.04,9.74 Z M8.71,21.36 C8.41836746,20.6913704 8.71063,19.9120036 9.37,19.6 L27.37,14.28 C27.97,14.1 28.64,14.6 28.88,15.4 C29.1716325,16.0686296 28.87937,16.8479964 28.22,17.16 L10.22,22.48 C9.62,22.65 8.94,22.15 8.71,21.36 Z M10.65,27.93 C10.3583675,27.2613704 10.65063,26.4820036 11.31,26.17 L29.31,20.85 C29.91,20.67 30.58,21.17 30.82,21.97 C31.1116325,22.6386296 30.81937,23.4179964 30.16,23.73 L12.16,29.05 C11.56,29.23 10.85,28.72 10.65,27.92 L10.65,27.93 Z M12.59,34.5 C12.2983675,33.8313704 12.59063,33.0520036 13.25,32.74 L31.25,27.42 C31.85,27.24 32.52,27.74 32.76,28.54 C33.0516325,29.2086296 32.75937,29.9879964 32.1,30.3 L14.1,35.62 C13.5,35.79 12.85,35.29 12.59,34.49 L12.59,34.5 Z M34.04,36.87 L16.04,42.19 C15.44,42.37 14.77,41.87 14.53,41.07 C14.2383675,40.4013704 14.53063,39.6220036 15.19,39.31 L33.19,33.99 C33.79,33.81 34.46,34.31 34.7,35.11 C34.9851642,35.775931 34.6938974,36.5482293 34.04,36.86 L34.04,36.87 Z" id="Shape" fill="#FFFFFF"></path>
                </g>
                <g id="Group-3-Copy" transform="translate(1015.000000, 387.000000)" fill-rule="nonzero">
                    <path d="M43.85,46.43 L42.03,40.17 C42.0344199,40.1034066 42.0344199,40.0365934 42.03,39.97 L32.58,7.45 C32.58,7.45 32.58,7.39 32.53,7.35 L31.93,5.3 C30.9872843,2.07717864 27.6171682,0.222273935 24.39,1.15 L5.02,6.78 C3.46449055,7.22615948 2.15050995,8.2730624 1.36813506,9.68959248 C0.585760166,11.1061226 0.399329555,12.7757915 0.85,14.33 L12.8,55.46 C13.2481918,57.0110739 14.2949062,58.3201918 15.7093451,59.0986959 C17.123784,59.8772001 18.7897855,60.0611553 20.34,59.61 L39.71,53.98 C42.9375806,53.0377022 44.7908139,49.6580134 43.85,46.43 L43.85,46.43 Z M3.9,14.23 L3.69,13.51 C3.21310495,11.8725666 4.15299935,10.1583783 5.79,9.68 L25.16,4.05 C25.439505,3.96932309 25.7290865,3.92891636 26.02,3.93 C27.4022292,3.92108963 28.6244629,4.82554257 29.02,6.15 L29.23,6.87 L3.9,14.23 Z M38.85,51.1 L19.48,56.73 C17.8425666,57.2068951 16.1283783,56.2670006 15.65,54.63 L14.19,49.63 L39.49,42.28 L40.95,47.28 C41.4204705,48.9142639 40.4819333,50.6215078 38.85,51.1 L38.85,51.1 Z" id="Shape" fill="#000000"></path>
                    <path d="M27.05,46.69 C25.7174263,47.0776564 24.7497694,48.2301224 24.5985262,49.6096715 C24.447283,50.9892206 25.1422612,52.3239652 26.3591924,52.9911298 C27.5761236,53.6582944 29.0751697,53.5263914 30.1568942,52.656965 C31.2386187,51.7875386 31.6898306,50.3519393 31.3,49.02 C30.7685037,47.2040299 28.866835,46.161468 27.05,46.69 L27.05,46.69 Z" id="Shape" fill="#FFFFFF"></path>
                    <path d="M30.04,9.74 L4.76,17.08 L13.37,46.72 L38.65,39.38 L30.04,9.74 Z M8.71,21.36 C8.41836746,20.6913704 8.71063,19.9120036 9.37,19.6 L27.37,14.28 C27.97,14.1 28.64,14.6 28.88,15.4 C29.1716325,16.0686296 28.87937,16.8479964 28.22,17.16 L10.22,22.48 C9.62,22.65 8.94,22.15 8.71,21.36 Z M10.65,27.93 C10.3583675,27.2613704 10.65063,26.4820036 11.31,26.17 L29.31,20.85 C29.91,20.67 30.58,21.17 30.82,21.97 C31.1116325,22.6386296 30.81937,23.4179964 30.16,23.73 L12.16,29.05 C11.56,29.23 10.85,28.72 10.65,27.92 L10.65,27.93 Z M12.59,34.5 C12.2983675,33.8313704 12.59063,33.0520036 13.25,32.74 L31.25,27.42 C31.85,27.24 32.52,27.74 32.76,28.54 C33.0516325,29.2086296 32.75937,29.9879964 32.1,30.3 L14.1,35.62 C13.5,35.79 12.85,35.29 12.59,34.49 L12.59,34.5 Z M34.04,36.87 L16.04,42.19 C15.44,42.37 14.77,41.87 14.53,41.07 C14.2383675,40.4013704 14.53063,39.6220036 15.19,39.31 L33.19,33.99 C33.79,33.81 34.46,34.31 34.7,35.11 C34.9851642,35.775931 34.6938974,36.5482293 34.04,36.86 L34.04,36.87 Z" id="Shape" fill="#FFFFFF"></path>
                </g>
                <path d="M348.16,169.69 L303.57,169.69 C302.194711,169.67916 300.872888,170.222078 299.902264,171.196464 C298.93164,172.17085 298.39384,173.494763 298.41,174.87 L298.41,205.87 C298.404444,208.728583 300.71146,211.053482 303.57,211.07 L315.94,211.07 L314.94,217.07 C314.933503,217.149868 314.933503,217.230132 314.94,217.31 C314.999534,218.677672 316.151975,219.740776 317.52,219.69 L334.17,219.69 C335.538025,219.740776 336.690466,218.677672 336.75,217.31 C336.756542,217.230134 336.756542,217.149866 336.75,217.07 L335.75,211.07 L348.12,211.07 C350.982451,211.058975 353.295537,208.732467 353.29,205.87 L353.29,174.87 C353.306059,173.49999 352.772353,172.1807 351.808253,171.207203 C350.844153,170.233706 349.530101,169.68723 348.16,169.69 Z M332.1,189.69 C332.113169,189.581565 332.171209,189.483622 332.26,189.42 L335.97,187.3 L332.26,185.1 C332.171209,185.036378 332.113169,184.938435 332.1,184.83 L332.1,183.14 C332.093887,183.008943 332.161583,182.885474 332.275366,182.820154 C332.389149,182.754834 332.529908,182.758635 332.64,182.83 L339.44,186.95 C339.549047,187.026464 339.618621,187.147303 339.63,187.28 L339.63,187.38 C339.618621,187.512697 339.549047,187.633536 339.44,187.71 L332.64,191.71 C332.529908,191.781365 332.389149,191.785166 332.275366,191.719846 C332.161583,191.654526 332.093887,191.531057 332.1,191.4 L332.1,189.69 Z M323.79,193.58 L327.6,180.72 C327.653741,180.572305 327.792859,180.472935 327.95,180.47 L329.85,180.47 C329.973161,180.459484 330.092737,180.514712 330.164583,180.615298 C330.23643,180.715883 330.249892,180.846907 330.2,180.96 L326.41,193.82 C326.351876,193.964305 326.215356,194.06182 326.06,194.07 L324.14,194.07 C324.026102,194.071321 323.918299,194.018661 323.849327,193.928012 C323.780355,193.837363 323.758352,193.71942 323.79,193.61 L323.79,193.58 Z M314.23,187.29 C314.241379,187.157303 314.310953,187.036464 314.42,186.96 L321.22,182.84 C321.330092,182.768635 321.470851,182.764834 321.584634,182.830154 C321.698417,182.895474 321.766113,183.018943 321.76,183.15 L321.76,184.84 C321.746831,184.948435 321.688791,185.046378 321.6,185.11 L317.89,187.31 L321.6,189.43 C321.688791,189.493622 321.746831,189.591565 321.76,189.7 L321.76,191.39 C321.766113,191.521057 321.698417,191.644526 321.584634,191.709846 C321.470851,191.775166 321.330092,191.771365 321.22,191.7 L314.42,187.7 C314.310953,187.623536 314.241379,187.502697 314.23,187.37 L314.23,187.29 Z M318.07,216.66 L318.98,211.05 L332.75,211.05 L333.66,216.66 L318.07,216.66 Z M350.33,205.85 C350.340777,206.431505 350.116594,206.992784 349.708171,207.406855 C349.299747,207.820925 348.741598,208.052792 348.16,208.05 L303.57,208.05 C302.990134,208.050099 302.43458,207.817046 302.028331,207.403275 C301.622083,206.989503 301.399262,206.429766 301.41,205.85 L301.41,204.28 L350.33,204.28 L350.33,205.85 Z" id="Shape" fill="#000000" fill-rule="nonzero"></path>
                <path d="M348.16,172.69 L303.57,172.69 C302.992817,172.687259 302.438771,172.916707 302.032521,173.326718 C301.626271,173.736729 301.40194,174.292866 301.41,174.87 L301.41,201.29 L350.33,201.29 L350.33,174.88 C350.34083,174.299401 350.116341,173.73911 349.707611,173.326614 C349.298882,172.914117 348.740674,172.684497 348.16,172.69 Z M321.77,184.86 C321.756831,184.968435 321.698791,185.066378 321.61,185.13 L317.9,187.33 L321.61,189.45 C321.698791,189.513622 321.756831,189.611565 321.77,189.72 L321.77,191.41 C321.776113,191.541057 321.708417,191.664526 321.594634,191.729846 C321.480851,191.795166 321.340092,191.791365 321.23,191.72 L314.43,187.72 C314.320953,187.643536 314.251379,187.522697 314.24,187.39 L314.24,187.29 C314.251379,187.157303 314.320953,187.036464 314.43,186.96 L321.23,182.84 C321.340092,182.768635 321.480851,182.764834 321.594634,182.830154 C321.708417,182.895474 321.776113,183.018943 321.77,183.15 L321.77,184.86 Z M330.2,180.97 L326.41,193.83 C326.351876,193.974305 326.215356,194.07182 326.06,194.08 L324.14,194.08 C324.018738,194.084856 323.903191,194.028288 323.832652,193.929534 C323.762114,193.83078 323.746079,193.703132 323.79,193.59 L327.6,180.73 C327.653741,180.582305 327.792859,180.482935 327.95,180.48 L329.85,180.48 C329.975908,180.467495 330.098763,180.523919 330.171322,180.627575 C330.243881,180.73123 330.254846,180.865977 330.2,180.98 L330.2,180.97 Z M339.64,187.4 C339.628621,187.532697 339.559047,187.653536 339.45,187.73 L332.65,191.73 C332.539908,191.801365 332.399149,191.805166 332.285366,191.739846 C332.171583,191.674526 332.103887,191.551057 332.11,191.42 L332.11,189.73 C332.123169,189.621565 332.181209,189.523622 332.27,189.46 L335.98,187.34 L332.27,185.14 C332.181209,185.076378 332.123169,184.978435 332.11,184.87 L332.11,183.18 C332.103887,183.048943 332.171583,182.925474 332.285366,182.860154 C332.399149,182.794834 332.539908,182.798635 332.65,182.87 L339.45,186.99 C339.559047,187.066464 339.628621,187.187303 339.64,187.32 L339.64,187.4 Z" id="Shape" fill="#FFFFFF" fill-rule="nonzero"></path>
                <path d="M793.85,768.99 C790.55,771.33 786.29,771.41 783.68,771.16 C785.458355,768.388294 786.78175,765.349885 787.6,762.16 C788.504469,758.771207 791.34717,756.251361 794.82,755.76 L798.68,759.62 C798.12,763.94 796.5,767.08 793.85,768.99 Z" id="Shape" fill="#FFFFFF" fill-rule="nonzero"></path>
                <rect id="Rectangle-path" fill="#FFFFFF" fill-rule="nonzero" transform="translate(800.820614, 753.747509) rotate(-44.980000) translate(-800.820614, -753.747509) " x="798.030614" y="751.782509" width="5.58" height="3.93"></rect>
                <path d="M843.18,79.44 C842.856146,78.6771355 842.240315,78.0757097 841.47,77.77 L804.56,63.05 C802.958424,62.4132824 801.143464,63.1911226 800.5,64.79 L789.98,91.37 L787.16,90.23 C786.790054,90.0824312 786.376606,90.0880536 786.010809,90.2456277 C785.645012,90.4032017 785.356903,90.6997885 785.21,91.07 L784.21,93.59 C783.884907,94.4028717 783.896142,95.3116105 784.241232,96.1161965 C784.586323,96.9207825 785.236984,97.5552687 786.05,97.88 L830.91,115.78 C832.605495,116.45766 834.529509,115.63436 835.21,113.94 L836.21,111.42 C836.357569,111.050054 836.351946,110.636606 836.194372,110.270809 C836.036798,109.905012 835.740212,109.616903 835.37,109.47 L832.7,108.4 L843.21,81.83 C843.51876,81.0611427 843.507962,80.200865 843.18,79.44 L843.18,79.44 Z M819.46,90.97 C820.194946,91.2630027 820.784389,91.8344749 821.1,92.56 C821.741806,94.0733845 821.04616,95.8214183 819.54,96.48 C818.809616,96.7800541 817.990384,96.7800541 817.26,96.48 L817.26,96.48 C816.133384,96.1905739 815.275616,95.2759778 815.058956,94.1331345 C814.842297,92.9902912 815.305802,91.8252094 816.248315,91.1435196 C817.190828,90.4618299 818.442453,90.3864134 819.46,90.95 L819.46,90.97 Z M812.38,76.92 C812.987936,75.3795339 814.729136,74.6230743 816.27,75.23 C817.396616,75.5194261 818.254384,76.4340222 818.471044,77.5768655 C818.687703,78.7197088 818.224198,79.8847906 817.281685,80.5664804 C816.339172,81.2481701 815.087547,81.3235866 814.07,80.76 L814.07,80.76 C812.555077,80.148224 811.808229,78.4366968 812.39,76.91 L812.38,76.92 Z M787.16,95.11 C787.083091,95.0811571 787.021373,95.0220413 786.989245,94.946446 C786.957117,94.8708507 786.95739,94.7853885 786.99,94.71 L787.44,93.59 L806.29,101.11 C806.244627,101.866733 806.546463,102.60292 807.11,103.11 L787.16,95.11 Z M807.74,81.01 C807.116309,82.5347722 805.379761,83.2713543 803.85,82.66 L803.85,82.66 C802.718729,82.21194 801.97014,81.124945 801.954944,79.9082685 C801.939749,78.6915921 802.660957,77.5862405 803.780686,77.1100673 C804.900414,76.6338942 806.19686,76.8812226 807.062643,77.7361801 C807.928426,78.5911375 808.192047,79.884369 807.73,81.01 L807.74,81.01 Z M832.85,111.71 L832.4,112.83 C832.371807,112.905945 832.314098,112.96726 832.24,113 C832.16617,113.029493 832.08383,113.029493 832.01,113 L812.06,105 C812.804682,105.023971 813.520684,104.711868 814.01,104.15 L832.85,111.71 Z M832.85,89.31 C832.226347,90.8293336 830.496947,91.5647743 828.97,90.96 L828.97,90.96 C827.444319,90.3481223 826.695172,88.622409 827.29,87.09 C827.587546,86.3569519 828.162605,85.77111 828.89,85.46 C830.403384,84.818194 832.151418,85.5138401 832.81,87.02 C833.132339,87.7465429 833.146769,88.572643 832.85,89.31 L832.85,89.31 Z" id="Shape" fill="#000000" fill-rule="nonzero"></path>
                <path d="M840.36,80.56 L803.45,65.83 C803.386601,65.8087017 803.317386,65.8389829 803.29,65.9 L792.77,92.48 L808.67,98.82 C809.040212,98.9669027 809.336798,99.2550119 809.494372,99.6208088 C809.651946,99.9866057 809.657569,100.400054 809.51,100.77 L809.45,100.92 L811.86,101.92 L811.92,101.77 C812.066903,101.399788 812.355012,101.103202 812.720809,100.945628 C813.086606,100.788054 813.500054,100.782431 813.87,100.93 L829.87,107.33 L840.39,80.75 C840.431979,80.6887347 840.418813,80.6053509 840.36,80.56 Z M807.75,81 C807.130219,82.5341529 805.385335,83.2768475 803.85,82.66 L803.85,82.66 C802.718729,82.21194 801.97014,81.124945 801.954944,79.9082685 C801.939749,78.6915921 802.660957,77.5862405 803.780686,77.1100673 C804.900414,76.6338942 806.19686,76.8812226 807.062643,77.7361801 C807.928426,78.5911375 808.192047,79.884369 807.73,81.01 L807.75,81 Z M814.07,80.78 L814.07,80.78 C812.544319,80.1681223 811.795172,78.442409 812.39,76.91 C813.001898,75.3789031 814.734751,74.6285957 816.27,75.23 C817.396616,75.5194261 818.254384,76.4340222 818.471044,77.5768655 C818.687703,78.7197088 818.224198,79.8847906 817.281685,80.5664804 C816.339172,81.2481701 815.087547,81.3235866 814.07,80.76 L814.07,80.78 Z M821.14,94.83 C820.848144,95.5667652 820.271217,96.1545091 819.54,96.46 C818.809616,96.7600541 817.990384,96.7600541 817.26,96.46 L817.26,96.46 C815.977922,95.9742933 815.188235,94.6812333 815.341662,93.3188476 C815.495088,91.9564618 816.552587,90.8714243 817.910579,90.6830316 C819.268571,90.494639 820.581501,91.2508296 821.1,92.52 C821.423966,93.2566661 821.438378,94.0926038 821.14,94.84 L821.14,94.83 Z M832.85,89.31 C832.226347,90.8293336 830.496947,91.5647743 828.97,90.96 L828.97,90.96 C827.444319,90.3481223 826.695172,88.622409 827.29,87.09 C827.587546,86.3569519 828.162605,85.77111 828.89,85.46 C830.403384,84.818194 832.151418,85.5138401 832.81,87.02 C833.132339,87.7465429 833.146769,88.572643 832.85,89.31 L832.85,89.31 Z" id="Shape" fill="#FFFFFF" fill-rule="nonzero"></path>
                <path d="M812.93,79.96 C812.229252,79.1475504 812.015726,78.022725 812.37,77.01 L807.22,77.95 C807.920748,78.7624496 808.134274,79.887275 807.78,80.9 L812.93,79.96 Z" id="Shape" fill="#000000" fill-rule="nonzero"></path>
                <path d="M819.32,90.92 L817.15,80.23 C816.34845,80.9443039 815.220416,81.1630046 814.21,80.8 L816.38,91.48 C817.190266,90.7829243 818.310215,90.5696006 819.32,90.92 L819.32,90.92 Z" id="Shape" fill="#000000" fill-rule="nonzero"></path>
                <path d="M828.35,90.65 C827.466556,90.0421488 826.974745,89.0089662 827.06,87.94 L820.06,91.27 C820.530515,91.5869175 820.90153,92.030748 821.13,92.55 C821.324718,93.0000279 821.403784,93.4916116 821.36,93.98 L828.35,90.65 Z" id="Shape" fill="#000000" fill-rule="nonzero"></path>
                <g id="Group-4" transform="translate(1262.000000, 110.000000)" fill-rule="nonzero">
                    <path d="M55.31,13.94 C55.0289653,13.658615 54.6476907,13.5003501 54.25,13.5 L48.92,13.5 L48.92,8.1 C48.92,7.27157288 48.2484271,6.6 47.42,6.6 L42.32,6.6 L42.56,4.77 C42.6133587,4.36217089 42.4969106,3.9503226 42.2379008,3.63081415 C41.978891,3.3113057 41.6000449,3.11217062 41.19,3.08 L9.07,0.51 C8.66702182,0.477004215 8.26778877,0.608089416 7.96280319,0.873539833 C7.6578176,1.13899025 7.47291102,1.51632288 7.45,1.92 L7.18,6.6 L2.26,6.6 C1.43157288,6.6 0.76,7.27157288 0.76,8.1 L0.76,41.96 C0.76,42.7884271 1.43157288,43.46 2.26,43.46 L4,43.46 L3.49,47.53 C3.43365596,47.9378137 3.54740293,48.3508603 3.80458215,48.6723343 C4.06176137,48.9938083 4.43976473,49.1954497 4.85,49.23 L36.97,51.83 L37.09,51.83 C37.8698977,51.8273 38.5176125,51.227403 38.58,50.45 L38.58,50.23 L54.07,50.23 C54.8945375,50.2300183 55.5645031,49.5645192 55.57,48.74 L55.71,15.04 C55.7311282,14.634295 55.586792,14.2373704 55.31,13.94 L55.31,13.94 Z M23.31,25.6 C22.9088571,28.9111279 19.9784311,31.3238394 16.6518837,31.0818357 C13.3253362,30.839832 10.7749628,28.0283967 10.8572712,24.6940739 C10.9395795,21.359751 13.6255637,18.6775761 16.96,18.6 L16.31,23.93 C16.2471871,24.4636331 16.4746027,24.9901037 16.9061849,25.3101765 C17.337767,25.6302494 17.9075852,25.6950288 18.4,25.48 C20.24,24.67 22.13,23.84 23.2,23.39 C23.3200254,24.1203186 23.3469067,24.8629146 23.28,25.6 L23.31,25.6 Z M40.64,32.16 L31.64,32.16 C30.8115729,32.16 30.14,31.4884271 30.14,30.66 C30.14,29.8315729 30.8115729,29.16 31.64,29.16 L40.64,29.16 C41.4684271,29.16 42.14,29.8315729 42.14,30.66 C42.14,31.4884271 41.4684271,32.16 40.64,32.16 L40.64,32.16 Z M40.64,25.39 L31.64,25.39 C30.8115729,25.39 30.14,24.7184271 30.14,23.89 C30.14,23.0615729 30.8115729,22.39 31.64,22.39 L40.64,22.39 C41.4684271,22.39 42.14,23.0615729 42.14,23.89 C42.14,24.7184271 41.4684271,25.39 40.64,25.39 L40.64,25.39 Z M40.64,18.62 L31.64,18.62 C30.8115729,18.62 30.14,17.9484271 30.14,17.12 C30.14,16.2915729 30.8115729,15.62 31.64,15.62 L40.64,15.62 C41.4684271,15.62 42.14,16.2915729 42.14,17.12 C42.14,17.9484271 41.4684271,18.62 40.64,18.62 L40.64,18.62 Z" id="Shape" fill="#000000"></path>
                    <polygon id="Shape" fill="#FFFFFF" points="10.36 3.61 39.38 5.93 39.29 6.59 10.19 6.59"></polygon>
                    <polygon id="Shape" fill="#FFFFFF" points="6.67 46.34 7.03 43.45 36.16 43.45 35.73 48.69"></polygon>
                    <path d="M52.61,47.23 L38.85,47.23 L39.16,43.48 L47.4,43.48 C48.2284271,43.48 48.9,42.8084271 48.9,41.98 L48.9,16.49 L52.72,16.49 L52.61,47.23 Z" id="Shape" fill="#FFFFFF"></path>
                    <path d="M3.76,9.58 L3.76,40.44 L45.91,40.44 L45.91,9.58 L3.76,9.58 Z M23.28,25.58 C22.8788571,28.8911279 19.9484311,31.3038394 16.6218837,31.0618357 C13.2953362,30.819832 10.7449628,28.0083967 10.8272712,24.6740739 C10.9095795,21.339751 13.5955637,18.6575761 16.93,18.58 L16.28,23.91 C16.2171871,24.4436331 16.4446027,24.9701037 16.8761849,25.2901765 C17.307767,25.6102494 17.8775852,25.6750288 18.37,25.46 C20.21,24.65 22.1,23.82 23.17,23.37 C23.3017424,24.1055863 23.3387099,24.8550192 23.28,25.6 L23.28,25.58 Z M40.61,32.14 L31.61,32.14 C30.7815729,32.14 30.11,31.4684271 30.11,30.64 C30.11,29.8115729 30.7815729,29.14 31.61,29.14 L40.61,29.14 C41.4384271,29.14 42.11,29.8115729 42.11,30.64 C42.11,31.4684271 41.4384271,32.14 40.61,32.14 L40.61,32.14 Z M40.61,25.37 L31.61,25.37 C30.7815729,25.37 30.11,24.6984271 30.11,23.87 C30.11,23.0415729 30.7815729,22.37 31.61,22.37 L40.61,22.37 C41.4384271,22.37 42.11,23.0415729 42.11,23.87 C42.11,24.6984271 41.4384271,25.37 40.61,25.37 Z M40.61,18.6 L31.61,18.6 C30.7815729,18.6 30.11,17.9284271 30.11,17.1 C30.11,16.2715729 30.7815729,15.6 31.61,15.6 L40.61,15.6 C41.4384271,15.6 42.11,16.2715729 42.11,17.1 C42.11,17.9284271 41.4384271,18.6 40.61,18.6 L40.61,18.6 Z" id="Shape" fill="#FFFFFF"></path>
                    <polygon id="Shape" fill="#000000" points="23.72 23.1 23.72 23.1 23.72 23.1 23.72 21.6"></polygon>
                    <path d="M23.72,20.1 C23.27,20.1 23.18,20.1 19.58,21.68 L20.03,18.01 C20.1171512,17.4256079 19.9414412,16.8325869 19.55,16.39 C18.8778902,15.7779624 17.9722789,15.4894814 17.07,15.6 C12.107958,15.6043216 8.03324014,19.5231135 7.83541056,24.4812123 C7.63758099,29.439311 11.3871205,33.670293 16.3330438,34.0699453 C21.2789672,34.4695977 25.6591885,30.8955361 26.26,25.97 C26.26,25.97 26.61,22.33 25.26,20.82 C24.8742477,20.369502 24.3130452,20.1071216 23.72,20.1 L23.72,20.1 Z M23.28,25.61 C22.8788571,28.9211279 19.9484311,31.3338394 16.6218837,31.0918357 C13.2953362,30.849832 10.7449628,28.0383967 10.8272712,24.7040739 C10.9095795,21.369751 13.5955637,18.6875761 16.93,18.61 L16.28,23.94 C16.2171871,24.4736331 16.4446027,25.0001037 16.8761849,25.3201765 C17.307767,25.6402494 17.8775852,25.7050288 18.37,25.49 C20.21,24.68 22.1,23.85 23.17,23.4 C23.2991945,24.1257717 23.3361539,24.8649609 23.28,25.6 L23.28,25.61 Z" id="Shape" fill="#000000"></path>
                </g>
                <path d="M1439.52,423.82 C1439.52,428.265892 1435.91589,431.87 1431.47,431.87 C1427.02411,431.87 1423.42,428.265892 1423.42,423.82 C1423.42,419.374108 1427.02411,415.77 1431.47,415.77 C1435.91361,415.77551 1439.51449,419.376392 1439.52,423.82 Z M1426.41,423.82 C1426.41,426.609038 1428.67096,428.87 1431.46,428.87 C1434.24904,428.87 1436.51,426.609038 1436.51,423.82 C1436.51,421.030962 1434.24904,418.77 1431.46,418.77 C1428.67324,418.775502 1426.4155,421.033244 1426.41,423.82 Z" id="Shape" fill="#000000" fill-rule="nonzero"></path>
                <path d="M1400.16,583 C1400.16,587.445892 1396.55589,591.05 1392.11,591.05 C1387.66411,591.05 1384.06,587.445892 1384.06,583 C1384.06,578.554108 1387.66411,574.95 1392.11,574.95 C1396.55361,574.95551 1400.15449,578.556392 1400.16,583 Z M1387.05,583 C1387.05,585.042534 1388.28039,586.883948 1390.16745,587.665592 C1392.0545,588.447236 1394.2266,588.015179 1395.67089,586.570889 C1397.11518,585.126599 1397.54724,582.954504 1396.76559,581.067449 C1395.98395,579.180393 1394.14253,577.95 1392.1,577.95 C1389.31324,577.955502 1387.0555,580.213244 1387.05,583 L1387.05,583 Z" id="Shape" fill="#000000" fill-rule="nonzero"></path>
                <path d="M1400.16,264.64 C1400.16,269.085892 1396.55589,272.69 1392.11,272.69 C1387.66411,272.69 1384.06,269.085892 1384.06,264.64 C1384.06,260.194108 1387.66411,256.59 1392.11,256.59 C1396.55361,256.59551 1400.15449,260.196392 1400.16,264.64 Z M1387.05,264.64 C1387.05,266.682534 1388.28039,268.523948 1390.16745,269.305592 C1392.0545,270.087236 1394.2266,269.655179 1395.67089,268.210889 C1397.11518,266.766599 1397.54724,264.594504 1396.76559,262.707449 C1395.98395,260.820393 1394.14253,259.59 1392.1,259.59 C1389.31324,259.595502 1387.0555,261.853244 1387.05,264.64 L1387.05,264.64 Z" id="Shape" fill="#000000" fill-rule="nonzero"></path>
                <path d="M1006.2,68.09 L1006.2,80.76" id="Shape" stroke="#FFFFFF" stroke-width="3" stroke-linecap="round"></path>
                <path d="M1012.53,74.43 L999.86,74.43" id="Shape" stroke="#FFFFFF" stroke-width="3" stroke-linecap="round"></path>
                <path d="M605.37,68.09 L605.37,80.76" id="Shape" stroke="#FFFFFF" stroke-width="3" stroke-linecap="round"></path>
                <path d="M611.7,74.43 L599.04,74.43" id="Shape" stroke="#FFFFFF" stroke-width="3" stroke-linecap="round"></path>
                <path d="M1006.2,738.09 L1006.2,750.76" id="Shape" stroke="#FFFFFF" stroke-width="3" stroke-linecap="round"></path>
                <path d="M1012.53,744.43 L999.86,744.43" id="Shape" stroke="#FFFFFF" stroke-width="3" stroke-linecap="round"></path>
                <path d="M605.37,738.09 L605.37,750.76" id="Shape" stroke="#FFFFFF" stroke-width="3" stroke-linecap="round"></path>
                <path d="M611.7,744.43 L599.04,744.43" id="Shape" stroke="#FFFFFF" stroke-width="3" stroke-linecap="round"></path>
            </g>
        </g>
    </g>
</svg>